<mxfile host="app.diagrams.net" modified="2023-11-11T06:25:32.228Z" agent="Mozilla/5.0 (Windows NT 10.0; Win64; x64) AppleWebKit/537.36 (KHTML, like Gecko) Chrome/119.0.0.0 Safari/537.36" etag="dhN5TwtMzARN__HityFP" version="21.8.2" type="device">
  <diagram id="C5RBs43oDa-KdzZeNtuy" name="Page-1">
    <mxGraphModel dx="1434" dy="758" grid="1" gridSize="10" guides="1" tooltips="1" connect="1" arrows="1" fold="1" page="1" pageScale="1" pageWidth="550" pageHeight="200" math="0" shadow="0">
      <root>
        <mxCell id="WIyWlLk6GJQsqaUBKTNV-0" />
        <mxCell id="WIyWlLk6GJQsqaUBKTNV-1" parent="WIyWlLk6GJQsqaUBKTNV-0" />
        <mxCell id="zfCze3Ppa8VxgH6Embfo-9" value="" style="group" vertex="1" connectable="0" parent="WIyWlLk6GJQsqaUBKTNV-1">
          <mxGeometry x="15" y="5" width="520" height="190" as="geometry" />
        </mxCell>
        <mxCell id="WIyWlLk6GJQsqaUBKTNV-3" value="User Microservice" style="rounded=1;whiteSpace=wrap;html=1;fontSize=12;glass=0;strokeWidth=1;shadow=0;" parent="zfCze3Ppa8VxgH6Embfo-9" vertex="1">
          <mxGeometry y="150" width="120" height="40" as="geometry" />
        </mxCell>
        <mxCell id="zfCze3Ppa8VxgH6Embfo-0" value="Frontend" style="rounded=1;whiteSpace=wrap;html=1;fontSize=12;glass=0;strokeWidth=1;shadow=0;" vertex="1" parent="zfCze3Ppa8VxgH6Embfo-9">
          <mxGeometry x="170" y="30" width="120" height="40" as="geometry" />
        </mxCell>
        <mxCell id="WIyWlLk6GJQsqaUBKTNV-2" value="" style="rounded=0;html=1;jettySize=auto;orthogonalLoop=1;fontSize=11;endArrow=block;endFill=0;endSize=8;strokeWidth=1;shadow=0;labelBackgroundColor=none;edgeStyle=orthogonalEdgeStyle;entryX=0;entryY=0.5;entryDx=0;entryDy=0;exitX=0.5;exitY=0;exitDx=0;exitDy=0;startArrow=block;startFill=0;" parent="zfCze3Ppa8VxgH6Embfo-9" source="WIyWlLk6GJQsqaUBKTNV-3" target="zfCze3Ppa8VxgH6Embfo-0" edge="1">
          <mxGeometry relative="1" as="geometry">
            <mxPoint x="230" y="70" as="targetPoint" />
          </mxGeometry>
        </mxCell>
        <mxCell id="zfCze3Ppa8VxgH6Embfo-1" value="Other Microservice" style="rounded=1;whiteSpace=wrap;html=1;fontSize=12;glass=0;strokeWidth=1;shadow=0;" vertex="1" parent="zfCze3Ppa8VxgH6Embfo-9">
          <mxGeometry x="350" y="150" width="120" height="40" as="geometry" />
        </mxCell>
        <mxCell id="zfCze3Ppa8VxgH6Embfo-2" value="" style="rounded=0;html=1;jettySize=auto;orthogonalLoop=1;fontSize=11;endArrow=block;endFill=0;endSize=8;strokeWidth=1;shadow=0;labelBackgroundColor=none;edgeStyle=orthogonalEdgeStyle;entryX=1;entryY=0.5;entryDx=0;entryDy=0;exitX=0.5;exitY=0;exitDx=0;exitDy=0;startArrow=block;startFill=0;" edge="1" parent="zfCze3Ppa8VxgH6Embfo-9" source="zfCze3Ppa8VxgH6Embfo-1" target="zfCze3Ppa8VxgH6Embfo-0">
          <mxGeometry relative="1" as="geometry">
            <mxPoint x="70" y="160" as="sourcePoint" />
            <mxPoint x="180" y="60" as="targetPoint" />
          </mxGeometry>
        </mxCell>
        <mxCell id="zfCze3Ppa8VxgH6Embfo-3" value="" style="rounded=0;html=1;jettySize=auto;orthogonalLoop=1;fontSize=11;endArrow=block;endFill=0;endSize=8;strokeWidth=1;shadow=0;labelBackgroundColor=none;edgeStyle=orthogonalEdgeStyle;entryX=1;entryY=0.5;entryDx=0;entryDy=0;exitX=0;exitY=0.5;exitDx=0;exitDy=0;startArrow=none;startFill=0;" edge="1" parent="zfCze3Ppa8VxgH6Embfo-9" source="zfCze3Ppa8VxgH6Embfo-1" target="WIyWlLk6GJQsqaUBKTNV-3">
          <mxGeometry relative="1" as="geometry">
            <mxPoint x="420" y="160" as="sourcePoint" />
            <mxPoint x="300" y="60" as="targetPoint" />
          </mxGeometry>
        </mxCell>
        <mxCell id="zfCze3Ppa8VxgH6Embfo-4" value="Generates access and refresh token" style="text;html=1;strokeColor=none;fillColor=none;align=center;verticalAlign=middle;whiteSpace=wrap;rounded=0;" vertex="1" parent="zfCze3Ppa8VxgH6Embfo-9">
          <mxGeometry x="60" width="100" height="50" as="geometry" />
        </mxCell>
        <mxCell id="zfCze3Ppa8VxgH6Embfo-5" value="Login request" style="text;html=1;strokeColor=none;fillColor=none;align=center;verticalAlign=middle;whiteSpace=wrap;rounded=0;" vertex="1" parent="zfCze3Ppa8VxgH6Embfo-9">
          <mxGeometry y="100" width="60" height="30" as="geometry" />
        </mxCell>
        <mxCell id="zfCze3Ppa8VxgH6Embfo-6" value="Get user from access token" style="text;html=1;strokeColor=none;fillColor=none;align=center;verticalAlign=middle;whiteSpace=wrap;rounded=0;" vertex="1" parent="zfCze3Ppa8VxgH6Embfo-9">
          <mxGeometry x="160" y="140" width="160" height="30" as="geometry" />
        </mxCell>
        <mxCell id="zfCze3Ppa8VxgH6Embfo-7" value="&lt;div style=&quot;&quot;&gt;Pass access token in header of api call&lt;/div&gt;" style="text;whiteSpace=wrap;html=1;align=center;" vertex="1" parent="zfCze3Ppa8VxgH6Embfo-9">
          <mxGeometry x="420" y="90" width="100" height="60" as="geometry" />
        </mxCell>
        <mxCell id="zfCze3Ppa8VxgH6Embfo-8" value="&lt;span style=&quot;color: rgb(0, 0, 0); font-family: Helvetica; font-size: 12px; font-style: normal; font-variant-ligatures: normal; font-variant-caps: normal; font-weight: 400; letter-spacing: normal; orphans: 2; text-indent: 0px; text-transform: none; widows: 2; word-spacing: 0px; -webkit-text-stroke-width: 0px; background-color: rgb(251, 251, 251); text-decoration-thickness: initial; text-decoration-style: initial; text-decoration-color: initial; float: none; display: inline !important;&quot;&gt;Request new access token&lt;/span&gt;" style="text;whiteSpace=wrap;html=1;align=center;" vertex="1" parent="zfCze3Ppa8VxgH6Embfo-9">
          <mxGeometry x="300" y="10" width="100" height="40" as="geometry" />
        </mxCell>
      </root>
    </mxGraphModel>
  </diagram>
</mxfile>
